<svg width="269" height="192" viewBox="0 0 269 192" fill="none" xmlns="http://www.w3.org/2000/svg">
<path d="M-135 0H-131V4H-135V0Z" fill="#98C3CA"/>
<path d="M-115 0H-111V4H-115V0Z" fill="#98C3CA"/>
<path d="M-95 0H-91V4H-95V0Z" fill="#98C3CA"/>
<path d="M-75 0H-71V4H-75V0Z" fill="#98C3CA"/>
<path d="M-55 0H-51V4H-55V0Z" fill="#98C3CA"/>
<path d="M-35 0H-31V4H-35V0Z" fill="#98C3CA"/>
<path d="M-15 0H-11V4H-15V0Z" fill="#98C3CA"/>
<path d="M5 0H9V4H5V0Z" fill="#98C3CA"/>
<path d="M25 0H29V4H25V0Z" fill="#98C3CA"/>
<path d="M45 0H49V4H45V0Z" fill="#98C3CA"/>
<path d="M65 0H69V4H65V0Z" fill="#98C3CA"/>
<path d="M85 0H89V4H85V0Z" fill="#98C3CA"/>
<path d="M105 0H109V4H105V0Z" fill="#98C3CA"/>
<path d="M125 0H129V4H125V0Z" fill="#98C3CA"/>
<path d="M145 0H149V4H145V0Z" fill="#98C3CA"/>
<path d="M165 0H169V4H165V0Z" fill="#98C3CA"/>
<path d="M185 0H189V4H185V0Z" fill="#98C3CA"/>
<path d="M205 0H209V4H205V0Z" fill="#98C3CA"/>
<path d="M225 0H229V4H225V0Z" fill="#98C3CA"/>
<path d="M245 0H249V4H245V0Z" fill="#98C3CA"/>
<path d="M265 0H269V4H265V0Z" fill="#98C3CA"/>
<path d="M-135 20H-131V24H-135V20Z" fill="#98C3CA"/>
<path d="M-115 20H-111V24H-115V20Z" fill="#98C3CA"/>
<path d="M-95 20H-91V24H-95V20Z" fill="#98C3CA"/>
<path d="M-75 20H-71V24H-75V20Z" fill="#98C3CA"/>
<path d="M-55 20H-51V24H-55V20Z" fill="#98C3CA"/>
<path d="M-35 20H-31V24H-35V20Z" fill="#98C3CA"/>
<path d="M-15 20H-11V24H-15V20Z" fill="#98C3CA"/>
<path d="M5 20H9V24H5V20Z" fill="#98C3CA"/>
<path d="M25 20H29V24H25V20Z" fill="#98C3CA"/>
<path d="M45 20H49V24H45V20Z" fill="#98C3CA"/>
<path d="M65 20H69V24H65V20Z" fill="#98C3CA"/>
<path d="M85 20H89V24H85V20Z" fill="#98C3CA"/>
<path d="M105 20H109V24H105V20Z" fill="#98C3CA"/>
<path d="M125 20H129V24H125V20Z" fill="#98C3CA"/>
<path d="M145 20H149V24H145V20Z" fill="#98C3CA"/>
<path d="M165 20H169V24H165V20Z" fill="#98C3CA"/>
<path d="M185 20H189V24H185V20Z" fill="#98C3CA"/>
<path d="M205 20H209V24H205V20Z" fill="#98C3CA"/>
<path d="M225 20H229V24H225V20Z" fill="#98C3CA"/>
<path d="M245 20H249V24H245V20Z" fill="#98C3CA"/>
<path d="M265 20H269V24H265V20Z" fill="#98C3CA"/>
<path d="M-135 40H-131V44H-135V40Z" fill="#98C3CA"/>
<path d="M-115 40H-111V44H-115V40Z" fill="#98C3CA"/>
<path d="M-95 40H-91V44H-95V40Z" fill="#98C3CA"/>
<path d="M-75 40H-71V44H-75V40Z" fill="#98C3CA"/>
<path d="M-55 40H-51V44H-55V40Z" fill="#98C3CA"/>
<path d="M-35 40H-31V44H-35V40Z" fill="#98C3CA"/>
<path d="M-15 40H-11V44H-15V40Z" fill="#98C3CA"/>
<path d="M5 40H9V44H5V40Z" fill="#98C3CA"/>
<path d="M25 40H29V44H25V40Z" fill="#98C3CA"/>
<path d="M45 40H49V44H45V40Z" fill="#98C3CA"/>
<path d="M65 40H69V44H65V40Z" fill="#98C3CA"/>
<path d="M85 40H89V44H85V40Z" fill="#98C3CA"/>
<path d="M105 40H109V44H105V40Z" fill="#98C3CA"/>
<path d="M125 40H129V44H125V40Z" fill="#98C3CA"/>
<path d="M145 40H149V44H145V40Z" fill="#98C3CA"/>
<path d="M165 40H169V44H165V40Z" fill="#98C3CA"/>
<path d="M185 40H189V44H185V40Z" fill="#98C3CA"/>
<path d="M205 40H209V44H205V40Z" fill="#98C3CA"/>
<path d="M225 40H229V44H225V40Z" fill="#98C3CA"/>
<path d="M245 40H249V44H245V40Z" fill="#98C3CA"/>
<path d="M265 40H269V44H265V40Z" fill="#98C3CA"/>
<path d="M-135 60H-131V64H-135V60Z" fill="#98C3CA"/>
<path d="M-115 60H-111V64H-115V60Z" fill="#98C3CA"/>
<path d="M-95 60H-91V64H-95V60Z" fill="#98C3CA"/>
<path d="M-75 60H-71V64H-75V60Z" fill="#98C3CA"/>
<path d="M-55 60H-51V64H-55V60Z" fill="#98C3CA"/>
<path d="M-35 60H-31V64H-35V60Z" fill="#98C3CA"/>
<path d="M-15 60H-11V64H-15V60Z" fill="#98C3CA"/>
<path d="M5 60H9V64H5V60Z" fill="#98C3CA"/>
<path d="M25 60H29V64H25V60Z" fill="#98C3CA"/>
<path d="M45 60H49V64H45V60Z" fill="#98C3CA"/>
<path d="M65 60H69V64H65V60Z" fill="#98C3CA"/>
<path d="M85 60H89V64H85V60Z" fill="#98C3CA"/>
<path d="M105 60H109V64H105V60Z" fill="#98C3CA"/>
<path d="M125 60H129V64H125V60Z" fill="#98C3CA"/>
<path d="M145 60H149V64H145V60Z" fill="#98C3CA"/>
<path d="M165 60H169V64H165V60Z" fill="#98C3CA"/>
<path d="M185 60H189V64H185V60Z" fill="#98C3CA"/>
<path d="M205 60H209V64H205V60Z" fill="#98C3CA"/>
<path d="M225 60H229V64H225V60Z" fill="#98C3CA"/>
<path d="M245 60H249V64H245V60Z" fill="#98C3CA"/>
<path d="M265 60H269V64H265V60Z" fill="#98C3CA"/>
<path d="M-135 80H-131V84H-135V80Z" fill="#98C3CA"/>
<path d="M-115 80H-111V84H-115V80Z" fill="#98C3CA"/>
<path d="M-95 80H-91V84H-95V80Z" fill="#98C3CA"/>
<path d="M-75 80H-71V84H-75V80Z" fill="#98C3CA"/>
<path d="M-55 80H-51V84H-55V80Z" fill="#98C3CA"/>
<path d="M-35 80H-31V84H-35V80Z" fill="#98C3CA"/>
<path d="M-15 80H-11V84H-15V80Z" fill="#98C3CA"/>
<path d="M5 80H9V84H5V80Z" fill="#98C3CA"/>
<path d="M25 80H29V84H25V80Z" fill="#98C3CA"/>
<path d="M45 80H49V84H45V80Z" fill="#98C3CA"/>
<path d="M65 80H69V84H65V80Z" fill="#98C3CA"/>
<path d="M85 80H89V84H85V80Z" fill="#98C3CA"/>
<path d="M105 80H109V84H105V80Z" fill="#98C3CA"/>
<path d="M125 80H129V84H125V80Z" fill="#98C3CA"/>
<path d="M145 80H149V84H145V80Z" fill="#98C3CA"/>
<path d="M165 80H169V84H165V80Z" fill="#98C3CA"/>
<path d="M185 80H189V84H185V80Z" fill="#98C3CA"/>
<path d="M205 80H209V84H205V80Z" fill="#98C3CA"/>
<path d="M225 80H229V84H225V80Z" fill="#98C3CA"/>
<path d="M245 80H249V84H245V80Z" fill="#98C3CA"/>
<path d="M265 80H269V84H265V80Z" fill="#98C3CA"/>
<path d="M-135 100H-131V104H-135V100Z" fill="#98C3CA"/>
<path d="M-115 100H-111V104H-115V100Z" fill="#98C3CA"/>
<path d="M-95 100H-91V104H-95V100Z" fill="#98C3CA"/>
<path d="M-75 100H-71V104H-75V100Z" fill="#98C3CA"/>
<path d="M-55 100H-51V104H-55V100Z" fill="#98C3CA"/>
<path d="M-35 100H-31V104H-35V100Z" fill="#98C3CA"/>
<path d="M-15 100H-11V104H-15V100Z" fill="#98C3CA"/>
<path d="M5 100H9V104H5V100Z" fill="#98C3CA"/>
<path d="M25 100H29V104H25V100Z" fill="#98C3CA"/>
<path d="M45 100H49V104H45V100Z" fill="#98C3CA"/>
<path d="M65 100H69V104H65V100Z" fill="#98C3CA"/>
<path d="M85 100H89V104H85V100Z" fill="#98C3CA"/>
<path d="M105 100H109V104H105V100Z" fill="#98C3CA"/>
<path d="M125 100H129V104H125V100Z" fill="#98C3CA"/>
<path d="M145 100H149V104H145V100Z" fill="#98C3CA"/>
<path d="M165 100H169V104H165V100Z" fill="#98C3CA"/>
<path d="M185 100H189V104H185V100Z" fill="#98C3CA"/>
<path d="M205 100H209V104H205V100Z" fill="#98C3CA"/>
<path d="M225 100H229V104H225V100Z" fill="#98C3CA"/>
<path d="M245 100H249V104H245V100Z" fill="#98C3CA"/>
<path d="M265 100H269V104H265V100Z" fill="#98C3CA"/>
<path d="M-135 120H-131V124H-135V120Z" fill="#98C3CA"/>
<path d="M-115 120H-111V124H-115V120Z" fill="#98C3CA"/>
<path d="M-95 120H-91V124H-95V120Z" fill="#98C3CA"/>
<path d="M-75 120H-71V124H-75V120Z" fill="#98C3CA"/>
<path d="M-55 120H-51V124H-55V120Z" fill="#98C3CA"/>
<path d="M-35 120H-31V124H-35V120Z" fill="#98C3CA"/>
<path d="M-15 120H-11V124H-15V120Z" fill="#98C3CA"/>
<path d="M5 120H9V124H5V120Z" fill="#98C3CA"/>
<path d="M25 120H29V124H25V120Z" fill="#98C3CA"/>
<path d="M45 120H49V124H45V120Z" fill="#98C3CA"/>
<path d="M65 120H69V124H65V120Z" fill="#98C3CA"/>
<path d="M85 120H89V124H85V120Z" fill="#98C3CA"/>
<path d="M105 120H109V124H105V120Z" fill="#98C3CA"/>
<path d="M125 120H129V124H125V120Z" fill="#98C3CA"/>
<path d="M145 120H149V124H145V120Z" fill="#98C3CA"/>
<path d="M165 120H169V124H165V120Z" fill="#98C3CA"/>
<path d="M185 120H189V124H185V120Z" fill="#98C3CA"/>
<path d="M205 120H209V124H205V120Z" fill="#98C3CA"/>
<path d="M225 120H229V124H225V120Z" fill="#98C3CA"/>
<path d="M245 120H249V124H245V120Z" fill="#98C3CA"/>
<path d="M265 120H269V124H265V120Z" fill="#98C3CA"/>
<path d="M-135 140H-131V144H-135V140Z" fill="#98C3CA"/>
<path d="M-115 140H-111V144H-115V140Z" fill="#98C3CA"/>
<path d="M-95 140H-91V144H-95V140Z" fill="#98C3CA"/>
<path d="M-75 140H-71V144H-75V140Z" fill="#98C3CA"/>
<path d="M-55 140H-51V144H-55V140Z" fill="#98C3CA"/>
<path d="M-35 140H-31V144H-35V140Z" fill="#98C3CA"/>
<path d="M-15 140H-11V144H-15V140Z" fill="#98C3CA"/>
<path d="M5 140H9V144H5V140Z" fill="#98C3CA"/>
<path d="M25 140H29V144H25V140Z" fill="#98C3CA"/>
<path d="M45 140H49V144H45V140Z" fill="#98C3CA"/>
<path d="M65 140H69V144H65V140Z" fill="#98C3CA"/>
<path d="M85 140H89V144H85V140Z" fill="#98C3CA"/>
<path d="M105 140H109V144H105V140Z" fill="#98C3CA"/>
<path d="M125 140H129V144H125V140Z" fill="#98C3CA"/>
<path d="M145 140H149V144H145V140Z" fill="#98C3CA"/>
<path d="M165 140H169V144H165V140Z" fill="#98C3CA"/>
<path d="M185 140H189V144H185V140Z" fill="#98C3CA"/>
<path d="M205 140H209V144H205V140Z" fill="#98C3CA"/>
<path d="M225 140H229V144H225V140Z" fill="#98C3CA"/>
<path d="M245 140H249V144H245V140Z" fill="#98C3CA"/>
<path d="M265 140H269V144H265V140Z" fill="#98C3CA"/>
<path d="M-135 160H-131V164H-135V160Z" fill="#98C3CA"/>
<path d="M-115 160H-111V164H-115V160Z" fill="#98C3CA"/>
<path d="M-95 160H-91V164H-95V160Z" fill="#98C3CA"/>
<path d="M-75 160H-71V164H-75V160Z" fill="#98C3CA"/>
<path d="M-55 160H-51V164H-55V160Z" fill="#98C3CA"/>
<path d="M-35 160H-31V164H-35V160Z" fill="#98C3CA"/>
<path d="M-15 160H-11V164H-15V160Z" fill="#98C3CA"/>
<path d="M5 160H9V164H5V160Z" fill="#98C3CA"/>
<path d="M25 160H29V164H25V160Z" fill="#98C3CA"/>
<path d="M45 160H49V164H45V160Z" fill="#98C3CA"/>
<path d="M65 160H69V164H65V160Z" fill="#98C3CA"/>
<path d="M85 160H89V164H85V160Z" fill="#98C3CA"/>
<path d="M105 160H109V164H105V160Z" fill="#98C3CA"/>
<path d="M125 160H129V164H125V160Z" fill="#98C3CA"/>
<path d="M145 160H149V164H145V160Z" fill="#98C3CA"/>
<path d="M165 160H169V164H165V160Z" fill="#98C3CA"/>
<path d="M185 160H189V164H185V160Z" fill="#98C3CA"/>
<path d="M205 160H209V164H205V160Z" fill="#98C3CA"/>
<path d="M225 160H229V164H225V160Z" fill="#98C3CA"/>
<path d="M245 160H249V164H245V160Z" fill="#98C3CA"/>
<path d="M265 160H269V164H265V160Z" fill="#98C3CA"/>
<path d="M-135 180H-131V184H-135V180Z" fill="#98C3CA"/>
<path d="M-115 180H-111V184H-115V180Z" fill="#98C3CA"/>
<path d="M-95 180H-91V184H-95V180Z" fill="#98C3CA"/>
<path d="M-75 180H-71V184H-75V180Z" fill="#98C3CA"/>
<path d="M-55 180H-51V184H-55V180Z" fill="#98C3CA"/>
<path d="M-35 180H-31V184H-35V180Z" fill="#98C3CA"/>
<path d="M-15 180H-11V184H-15V180Z" fill="#98C3CA"/>
<path d="M5 180H9V184H5V180Z" fill="#98C3CA"/>
<path d="M25 180H29V184H25V180Z" fill="#98C3CA"/>
<path d="M45 180H49V184H45V180Z" fill="#98C3CA"/>
<path d="M65 180H69V184H65V180Z" fill="#98C3CA"/>
<path d="M85 180H89V184H85V180Z" fill="#98C3CA"/>
<path d="M105 180H109V184H105V180Z" fill="#98C3CA"/>
<path d="M125 180H129V184H125V180Z" fill="#98C3CA"/>
<path d="M145 180H149V184H145V180Z" fill="#98C3CA"/>
<path d="M165 180H169V184H165V180Z" fill="#98C3CA"/>
<path d="M185 180H189V184H185V180Z" fill="#98C3CA"/>
<path d="M205 180H209V184H205V180Z" fill="#98C3CA"/>
<path d="M225 180H229V184H225V180Z" fill="#98C3CA"/>
<path d="M245 180H249V184H245V180Z" fill="#98C3CA"/>
<path d="M265 180H269V184H265V180Z" fill="#98C3CA"/>
<path d="M-135 200H-131V204H-135V200Z" fill="#98C3CA"/>
<path d="M-115 200H-111V204H-115V200Z" fill="#98C3CA"/>
<path d="M-95 200H-91V204H-95V200Z" fill="#98C3CA"/>
<path d="M-75 200H-71V204H-75V200Z" fill="#98C3CA"/>
<path d="M-55 200H-51V204H-55V200Z" fill="#98C3CA"/>
<path d="M-35 200H-31V204H-35V200Z" fill="#98C3CA"/>
<path d="M-15 200H-11V204H-15V200Z" fill="#98C3CA"/>
<path d="M5 200H9V204H5V200Z" fill="#98C3CA"/>
<path d="M25 200H29V204H25V200Z" fill="#98C3CA"/>
<path d="M45 200H49V204H45V200Z" fill="#98C3CA"/>
<path d="M65 200H69V204H65V200Z" fill="#98C3CA"/>
<path d="M85 200H89V204H85V200Z" fill="#98C3CA"/>
<path d="M105 200H109V204H105V200Z" fill="#98C3CA"/>
<path d="M125 200H129V204H125V200Z" fill="#98C3CA"/>
<path d="M145 200H149V204H145V200Z" fill="#98C3CA"/>
<path d="M165 200H169V204H165V200Z" fill="#98C3CA"/>
<path d="M185 200H189V204H185V200Z" fill="#98C3CA"/>
<path d="M205 200H209V204H205V200Z" fill="#98C3CA"/>
<path d="M225 200H229V204H225V200Z" fill="#98C3CA"/>
<path d="M245 200H249V204H245V200Z" fill="#98C3CA"/>
<path d="M265 200H269V204H265V200Z" fill="#98C3CA"/>
<path d="M-135 220H-131V224H-135V220Z" fill="#98C3CA"/>
<path d="M-115 220H-111V224H-115V220Z" fill="#98C3CA"/>
<path d="M-95 220H-91V224H-95V220Z" fill="#98C3CA"/>
<path d="M-75 220H-71V224H-75V220Z" fill="#98C3CA"/>
<path d="M-55 220H-51V224H-55V220Z" fill="#98C3CA"/>
<path d="M-35 220H-31V224H-35V220Z" fill="#98C3CA"/>
<path d="M-15 220H-11V224H-15V220Z" fill="#98C3CA"/>
<path d="M5 220H9V224H5V220Z" fill="#98C3CA"/>
<path d="M25 220H29V224H25V220Z" fill="#98C3CA"/>
<path d="M45 220H49V224H45V220Z" fill="#98C3CA"/>
<path d="M65 220H69V224H65V220Z" fill="#98C3CA"/>
<path d="M85 220H89V224H85V220Z" fill="#98C3CA"/>
<path d="M105 220H109V224H105V220Z" fill="#98C3CA"/>
<path d="M125 220H129V224H125V220Z" fill="#98C3CA"/>
<path d="M145 220H149V224H145V220Z" fill="#98C3CA"/>
<path d="M165 220H169V224H165V220Z" fill="#98C3CA"/>
<path d="M185 220H189V224H185V220Z" fill="#98C3CA"/>
<path d="M205 220H209V224H205V220Z" fill="#98C3CA"/>
<path d="M225 220H229V224H225V220Z" fill="#98C3CA"/>
<path d="M245 220H249V224H245V220Z" fill="#98C3CA"/>
<path d="M265 220H269V224H265V220Z" fill="#98C3CA"/>
<path d="M-135 240H-131V244H-135V240Z" fill="#98C3CA"/>
<path d="M-115 240H-111V244H-115V240Z" fill="#98C3CA"/>
<path d="M-95 240H-91V244H-95V240Z" fill="#98C3CA"/>
<path d="M-75 240H-71V244H-75V240Z" fill="#98C3CA"/>
<path d="M-55 240H-51V244H-55V240Z" fill="#98C3CA"/>
<path d="M-35 240H-31V244H-35V240Z" fill="#98C3CA"/>
<path d="M-15 240H-11V244H-15V240Z" fill="#98C3CA"/>
<path d="M5 240H9V244H5V240Z" fill="#98C3CA"/>
<path d="M25 240H29V244H25V240Z" fill="#98C3CA"/>
<path d="M45 240H49V244H45V240Z" fill="#98C3CA"/>
<path d="M65 240H69V244H65V240Z" fill="#98C3CA"/>
<path d="M85 240H89V244H85V240Z" fill="#98C3CA"/>
<path d="M105 240H109V244H105V240Z" fill="#98C3CA"/>
<path d="M125 240H129V244H125V240Z" fill="#98C3CA"/>
<path d="M145 240H149V244H145V240Z" fill="#98C3CA"/>
<path d="M165 240H169V244H165V240Z" fill="#98C3CA"/>
<path d="M185 240H189V244H185V240Z" fill="#98C3CA"/>
<path d="M205 240H209V244H205V240Z" fill="#98C3CA"/>
<path d="M225 240H229V244H225V240Z" fill="#98C3CA"/>
<path d="M245 240H249V244H245V240Z" fill="#98C3CA"/>
<path d="M265 240H269V244H265V240Z" fill="#98C3CA"/>
<path d="M-135 260H-131V264H-135V260Z" fill="#98C3CA"/>
<path d="M-115 260H-111V264H-115V260Z" fill="#98C3CA"/>
<path d="M-95 260H-91V264H-95V260Z" fill="#98C3CA"/>
<path d="M-75 260H-71V264H-75V260Z" fill="#98C3CA"/>
<path d="M-55 260H-51V264H-55V260Z" fill="#98C3CA"/>
<path d="M-35 260H-31V264H-35V260Z" fill="#98C3CA"/>
<path d="M-15 260H-11V264H-15V260Z" fill="#98C3CA"/>
<path d="M5 260H9V264H5V260Z" fill="#98C3CA"/>
<path d="M25 260H29V264H25V260Z" fill="#98C3CA"/>
<path d="M45 260H49V264H45V260Z" fill="#98C3CA"/>
<path d="M65 260H69V264H65V260Z" fill="#98C3CA"/>
<path d="M85 260H89V264H85V260Z" fill="#98C3CA"/>
<path d="M105 260H109V264H105V260Z" fill="#98C3CA"/>
<path d="M125 260H129V264H125V260Z" fill="#98C3CA"/>
<path d="M145 260H149V264H145V260Z" fill="#98C3CA"/>
<path d="M165 260H169V264H165V260Z" fill="#98C3CA"/>
<path d="M185 260H189V264H185V260Z" fill="#98C3CA"/>
<path d="M205 260H209V264H205V260Z" fill="#98C3CA"/>
<path d="M225 260H229V264H225V260Z" fill="#98C3CA"/>
<path d="M245 260H249V264H245V260Z" fill="#98C3CA"/>
<path d="M265 260H269V264H265V260Z" fill="#98C3CA"/>
<path d="M-135 280H-131V284H-135V280Z" fill="#98C3CA"/>
<path d="M-115 280H-111V284H-115V280Z" fill="#98C3CA"/>
<path d="M-95 280H-91V284H-95V280Z" fill="#98C3CA"/>
<path d="M-75 280H-71V284H-75V280Z" fill="#98C3CA"/>
<path d="M-55 280H-51V284H-55V280Z" fill="#98C3CA"/>
<path d="M-35 280H-31V284H-35V280Z" fill="#98C3CA"/>
<path d="M-15 280H-11V284H-15V280Z" fill="#98C3CA"/>
<path d="M5 280H9V284H5V280Z" fill="#98C3CA"/>
<path d="M25 280H29V284H25V280Z" fill="#98C3CA"/>
<path d="M45 280H49V284H45V280Z" fill="#98C3CA"/>
<path d="M65 280H69V284H65V280Z" fill="#98C3CA"/>
<path d="M85 280H89V284H85V280Z" fill="#98C3CA"/>
<path d="M105 280H109V284H105V280Z" fill="#98C3CA"/>
<path d="M125 280H129V284H125V280Z" fill="#98C3CA"/>
<path d="M145 280H149V284H145V280Z" fill="#98C3CA"/>
<path d="M165 280H169V284H165V280Z" fill="#98C3CA"/>
<path d="M185 280H189V284H185V280Z" fill="#98C3CA"/>
<path d="M205 280H209V284H205V280Z" fill="#98C3CA"/>
<path d="M225 280H229V284H225V280Z" fill="#98C3CA"/>
<path d="M245 280H249V284H245V280Z" fill="#98C3CA"/>
<path d="M265 280H269V284H265V280Z" fill="#98C3CA"/>
<path d="M-135 300H-131V304H-135V300Z" fill="#98C3CA"/>
<path d="M-115 300H-111V304H-115V300Z" fill="#98C3CA"/>
<path d="M-95 300H-91V304H-95V300Z" fill="#98C3CA"/>
<path d="M-75 300H-71V304H-75V300Z" fill="#98C3CA"/>
<path d="M-55 300H-51V304H-55V300Z" fill="#98C3CA"/>
<path d="M-35 300H-31V304H-35V300Z" fill="#98C3CA"/>
<path d="M-15 300H-11V304H-15V300Z" fill="#98C3CA"/>
<path d="M5 300H9V304H5V300Z" fill="#98C3CA"/>
<path d="M25 300H29V304H25V300Z" fill="#98C3CA"/>
<path d="M45 300H49V304H45V300Z" fill="#98C3CA"/>
<path d="M65 300H69V304H65V300Z" fill="#98C3CA"/>
<path d="M85 300H89V304H85V300Z" fill="#98C3CA"/>
<path d="M105 300H109V304H105V300Z" fill="#98C3CA"/>
<path d="M125 300H129V304H125V300Z" fill="#98C3CA"/>
<path d="M145 300H149V304H145V300Z" fill="#98C3CA"/>
<path d="M165 300H169V304H165V300Z" fill="#98C3CA"/>
<path d="M185 300H189V304H185V300Z" fill="#98C3CA"/>
<path d="M205 300H209V304H205V300Z" fill="#98C3CA"/>
<path d="M225 300H229V304H225V300Z" fill="#98C3CA"/>
<path d="M245 300H249V304H245V300Z" fill="#98C3CA"/>
<path d="M265 300H269V304H265V300Z" fill="#98C3CA"/>
<path d="M-135 320H-131V324H-135V320Z" fill="#98C3CA"/>
<path d="M-115 320H-111V324H-115V320Z" fill="#98C3CA"/>
<path d="M-95 320H-91V324H-95V320Z" fill="#98C3CA"/>
<path d="M-75 320H-71V324H-75V320Z" fill="#98C3CA"/>
<path d="M-55 320H-51V324H-55V320Z" fill="#98C3CA"/>
<path d="M-35 320H-31V324H-35V320Z" fill="#98C3CA"/>
<path d="M-15 320H-11V324H-15V320Z" fill="#98C3CA"/>
<path d="M5 320H9V324H5V320Z" fill="#98C3CA"/>
<path d="M25 320H29V324H25V320Z" fill="#98C3CA"/>
<path d="M45 320H49V324H45V320Z" fill="#98C3CA"/>
<path d="M65 320H69V324H65V320Z" fill="#98C3CA"/>
<path d="M85 320H89V324H85V320Z" fill="#98C3CA"/>
<path d="M105 320H109V324H105V320Z" fill="#98C3CA"/>
<path d="M125 320H129V324H125V320Z" fill="#98C3CA"/>
<path d="M145 320H149V324H145V320Z" fill="#98C3CA"/>
<path d="M165 320H169V324H165V320Z" fill="#98C3CA"/>
<path d="M185 320H189V324H185V320Z" fill="#98C3CA"/>
<path d="M205 320H209V324H205V320Z" fill="#98C3CA"/>
<path d="M225 320H229V324H225V320Z" fill="#98C3CA"/>
<path d="M245 320H249V324H245V320Z" fill="#98C3CA"/>
<path d="M265 320H269V324H265V320Z" fill="#98C3CA"/>
<path d="M-135 340H-131V344H-135V340Z" fill="#98C3CA"/>
<path d="M-115 340H-111V344H-115V340Z" fill="#98C3CA"/>
<path d="M-95 340H-91V344H-95V340Z" fill="#98C3CA"/>
<path d="M-75 340H-71V344H-75V340Z" fill="#98C3CA"/>
<path d="M-55 340H-51V344H-55V340Z" fill="#98C3CA"/>
<path d="M-35 340H-31V344H-35V340Z" fill="#98C3CA"/>
<path d="M-15 340H-11V344H-15V340Z" fill="#98C3CA"/>
<path d="M5 340H9V344H5V340Z" fill="#98C3CA"/>
<path d="M25 340H29V344H25V340Z" fill="#98C3CA"/>
<path d="M45 340H49V344H45V340Z" fill="#98C3CA"/>
<path d="M65 340H69V344H65V340Z" fill="#98C3CA"/>
<path d="M85 340H89V344H85V340Z" fill="#98C3CA"/>
<path d="M105 340H109V344H105V340Z" fill="#98C3CA"/>
<path d="M125 340H129V344H125V340Z" fill="#98C3CA"/>
<path d="M145 340H149V344H145V340Z" fill="#98C3CA"/>
<path d="M165 340H169V344H165V340Z" fill="#98C3CA"/>
<path d="M185 340H189V344H185V340Z" fill="#98C3CA"/>
<path d="M205 340H209V344H205V340Z" fill="#98C3CA"/>
<path d="M225 340H229V344H225V340Z" fill="#98C3CA"/>
<path d="M245 340H249V344H245V340Z" fill="#98C3CA"/>
<path d="M265 340H269V344H265V340Z" fill="#98C3CA"/>
<path d="M-135 360H-131V364H-135V360Z" fill="#98C3CA"/>
<path d="M-115 360H-111V364H-115V360Z" fill="#98C3CA"/>
<path d="M-95 360H-91V364H-95V360Z" fill="#98C3CA"/>
<path d="M-75 360H-71V364H-75V360Z" fill="#98C3CA"/>
<path d="M-55 360H-51V364H-55V360Z" fill="#98C3CA"/>
<path d="M-35 360H-31V364H-35V360Z" fill="#98C3CA"/>
<path d="M-15 360H-11V364H-15V360Z" fill="#98C3CA"/>
<path d="M5 360H9V364H5V360Z" fill="#98C3CA"/>
<path d="M25 360H29V364H25V360Z" fill="#98C3CA"/>
<path d="M45 360H49V364H45V360Z" fill="#98C3CA"/>
<path d="M65 360H69V364H65V360Z" fill="#98C3CA"/>
<path d="M85 360H89V364H85V360Z" fill="#98C3CA"/>
<path d="M105 360H109V364H105V360Z" fill="#98C3CA"/>
<path d="M125 360H129V364H125V360Z" fill="#98C3CA"/>
<path d="M145 360H149V364H145V360Z" fill="#98C3CA"/>
<path d="M165 360H169V364H165V360Z" fill="#98C3CA"/>
<path d="M185 360H189V364H185V360Z" fill="#98C3CA"/>
<path d="M205 360H209V364H205V360Z" fill="#98C3CA"/>
<path d="M225 360H229V364H225V360Z" fill="#98C3CA"/>
<path d="M245 360H249V364H245V360Z" fill="#98C3CA"/>
<path d="M265 360H269V364H265V360Z" fill="#98C3CA"/>
<path d="M-135 380H-131V384H-135V380Z" fill="#98C3CA"/>
<path d="M-115 380H-111V384H-115V380Z" fill="#98C3CA"/>
<path d="M-95 380H-91V384H-95V380Z" fill="#98C3CA"/>
<path d="M-75 380H-71V384H-75V380Z" fill="#98C3CA"/>
<path d="M-55 380H-51V384H-55V380Z" fill="#98C3CA"/>
<path d="M-35 380H-31V384H-35V380Z" fill="#98C3CA"/>
<path d="M-15 380H-11V384H-15V380Z" fill="#98C3CA"/>
<path d="M5 380H9V384H5V380Z" fill="#98C3CA"/>
<path d="M25 380H29V384H25V380Z" fill="#98C3CA"/>
<path d="M45 380H49V384H45V380Z" fill="#98C3CA"/>
<path d="M65 380H69V384H65V380Z" fill="#98C3CA"/>
<path d="M85 380H89V384H85V380Z" fill="#98C3CA"/>
<path d="M105 380H109V384H105V380Z" fill="#98C3CA"/>
<path d="M125 380H129V384H125V380Z" fill="#98C3CA"/>
<path d="M145 380H149V384H145V380Z" fill="#98C3CA"/>
<path d="M165 380H169V384H165V380Z" fill="#98C3CA"/>
<path d="M185 380H189V384H185V380Z" fill="#98C3CA"/>
<path d="M205 380H209V384H205V380Z" fill="#98C3CA"/>
<path d="M225 380H229V384H225V380Z" fill="#98C3CA"/>
<path d="M245 380H249V384H245V380Z" fill="#98C3CA"/>
<path d="M265 380H269V384H265V380Z" fill="#98C3CA"/>
<path d="M-135 400H-131V404H-135V400Z" fill="#98C3CA"/>
<path d="M-115 400H-111V404H-115V400Z" fill="#98C3CA"/>
<path d="M-95 400H-91V404H-95V400Z" fill="#98C3CA"/>
<path d="M-75 400H-71V404H-75V400Z" fill="#98C3CA"/>
<path d="M-55 400H-51V404H-55V400Z" fill="#98C3CA"/>
<path d="M-35 400H-31V404H-35V400Z" fill="#98C3CA"/>
<path d="M-15 400H-11V404H-15V400Z" fill="#98C3CA"/>
<path d="M5 400H9V404H5V400Z" fill="#98C3CA"/>
<path d="M25 400H29V404H25V400Z" fill="#98C3CA"/>
<path d="M45 400H49V404H45V400Z" fill="#98C3CA"/>
<path d="M65 400H69V404H65V400Z" fill="#98C3CA"/>
<path d="M85 400H89V404H85V400Z" fill="#98C3CA"/>
<path d="M105 400H109V404H105V400Z" fill="#98C3CA"/>
<path d="M125 400H129V404H125V400Z" fill="#98C3CA"/>
<path d="M145 400H149V404H145V400Z" fill="#98C3CA"/>
<path d="M165 400H169V404H165V400Z" fill="#98C3CA"/>
<path d="M185 400H189V404H185V400Z" fill="#98C3CA"/>
<path d="M205 400H209V404H205V400Z" fill="#98C3CA"/>
<path d="M225 400H229V404H225V400Z" fill="#98C3CA"/>
<path d="M245 400H249V404H245V400Z" fill="#98C3CA"/>
<path d="M265 400H269V404H265V400Z" fill="#98C3CA"/>
</svg>
