<svg width="18" height="18" viewBox="0 0 18 18" fill="none" xmlns="http://www.w3.org/2000/svg">
<path fill-rule="evenodd" clip-rule="evenodd" d="M4.89391 1.80065C5.60128 1.7442 6.27282 1.46604 6.81293 1.00576C8.07331 -0.0683277 9.92708 -0.0683277 11.1875 1.00576C11.7276 1.46604 12.3991 1.7442 13.1065 1.80065C14.7572 1.93238 16.068 3.24319 16.1997 4.89391C16.2562 5.60128 16.5344 6.27282 16.9946 6.81293C18.0687 8.07331 18.0687 9.92708 16.9946 11.1875C16.5344 11.7276 16.2562 12.3991 16.1997 13.1065C16.068 14.7572 14.7572 16.068 13.1065 16.1997C12.3991 16.2562 11.7276 16.5344 11.1875 16.9946C9.92708 18.0687 8.07331 18.0687 6.81293 16.9946C6.27282 16.5344 5.60128 16.2562 4.89391 16.1997C3.24319 16.068 1.93238 14.7572 1.80065 13.1065C1.7442 12.3991 1.46604 11.7276 1.00576 11.1875C-0.0683277 9.92708 -0.0683277 8.07331 1.00576 6.81293C1.46604 6.27282 1.7442 5.60128 1.80065 4.89391C1.93238 3.24319 3.24319 1.93238 4.89391 1.80065ZM13.078 7.57801C13.5076 7.14844 13.5076 6.45195 13.078 6.02238C12.6484 5.5928 11.952 5.5928 11.5224 6.02238L7.90019 9.64456L6.47801 8.22238C6.04844 7.7928 5.35195 7.7928 4.92238 8.22238C4.4928 8.65195 4.4928 9.34843 4.92238 9.77801L7.12238 11.978C7.55195 12.4076 8.24844 12.4076 8.67801 11.978L13.078 7.57801Z" fill="#0A7687"/>
</svg>
