<?xml version="1.0" encoding="UTF-8" standalone="no"?>
<svg
   xmlns:dc="http://purl.org/dc/elements/1.1/"
   xmlns:cc="http://creativecommons.org/ns#"
   xmlns:rdf="http://www.w3.org/1999/02/22-rdf-syntax-ns#"
   xmlns:svg="http://www.w3.org/2000/svg"
   xmlns="http://www.w3.org/2000/svg"
   xmlns:sodipodi="http://sodipodi.sourceforge.net/DTD/sodipodi-0.dtd"
   xmlns:inkscape="http://www.inkscape.org/namespaces/inkscape"
   version="1.1"
   id="svg2"
   xml:space="preserve"
   width="1017.4013"
   height="309.62134"
   viewBox="0 0 1017.4013 309.62134"
   sodipodi:docname="White_Musicbed_Logotype.ai"><metadata
     id="metadata8"><rdf:RDF><cc:Work
         rdf:about=""><dc:format>image/svg+xml</dc:format><dc:type
           rdf:resource="http://purl.org/dc/dcmitype/StillImage" /></cc:Work></rdf:RDF></metadata><defs
     id="defs6"><clipPath
       clipPathUnits="userSpaceOnUse"
       id="clipPath22"><path
         d="M 0,232.216 H 763.051 V 0 H 0 Z"
         id="path20" /></clipPath></defs><sodipodi:namedview
     pagecolor="#ffffff"
     bordercolor="#666666"
     borderopacity="1"
     objecttolerance="10"
     gridtolerance="10"
     guidetolerance="10"
     inkscape:pageopacity="0"
     inkscape:pageshadow="2"
     inkscape:window-width="640"
     inkscape:window-height="480"
     id="namedview4" /><g
     id="g10"
     inkscape:groupmode="layer"
     inkscape:label="White_Musicbed_Logotype"
     transform="matrix(1.3333333,0,0,-1.3333333,0,309.62133)"><g
       id="g12"
       transform="translate(119.2972,119.8916)"><path
         d="m 0,0 -20.163,34.89 h -21.701 v -77.348 h 16.467 v 54.156 l 21.802,-40.936 h 7.19 L 25.396,11.698 V -42.458 H 41.979 V 34.89 H 20.162 Z"
         style="fill:#ffffff;fill-opacity:1;fill-rule:nonzero;stroke:none"
         id="path14" /></g><g
       id="g16"><g
         id="g18"
         clip-path="url(#clipPath22)"><g
           id="g24"
           transform="translate(231.0972,108.8599)"><path
             d="m 0,0 c 0,-10.784 -6.146,-18.206 -18.09,-18.206 -11.945,0 -18.207,7.422 -18.207,18.206 V 45.922 H -52.996 V -0.579 c 0,-19.019 11.365,-32.239 34.906,-32.239 23.54,0 34.905,13.104 34.905,32.354 V 45.922 L 0,45.922 Z"
             style="fill:#ffffff;fill-opacity:1;fill-rule:nonzero;stroke:none"
             id="path26" /></g><g
           id="g28"
           transform="translate(279.6262,133.7925)"><path
             d="m 0,0 c 0,4.638 3.943,7.769 11.017,7.769 7.885,0 16.235,-2.666 22.497,-8.465 l 9.161,12.06 c -7.654,7.074 -17.858,10.785 -30.151,10.785 -18.206,0 -29.339,-10.669 -29.339,-23.541 0,-29.107 44.53,-19.713 44.53,-33.397 0,-4.407 -4.406,-8.582 -13.451,-8.582 -10.669,0 -19.134,4.755 -24.585,10.437 l -8.929,-12.524 c 7.19,-7.306 17.858,-12.293 32.702,-12.293 20.874,0 30.962,10.669 30.962,24.817 C 44.414,-4.059 0,-12.292 0,0"
             style="fill:#ffffff;fill-opacity:1;fill-rule:nonzero;stroke:none"
             id="path30" /></g><path
           d="m 341.105,77.434 h 16.467 v 77.348 h -16.467 z"
           style="fill:#ffffff;fill-opacity:1;fill-rule:nonzero;stroke:none"
           id="path32" /><g
           id="g34"
           transform="translate(414.5001,141.4461)"><path
             d="m 0,0 c 8.002,0 14.959,-4.986 18.207,-11.249 l 14.147,6.958 C 26.904,5.334 17.047,14.612 0,14.612 c -23.193,0 -41.167,-16.235 -41.167,-40.008 0,-23.773 17.974,-40.008 41.167,-40.008 17.047,0 26.787,9.393 32.354,19.018 l -14.147,6.842 C 14.959,-45.922 8.002,-50.792 0,-50.792 c -14.032,0 -24.237,10.784 -24.237,25.396 C -24.237,-10.785 -14.032,0 0,0"
             style="fill:#ffffff;fill-opacity:1;fill-rule:nonzero;stroke:none"
             id="path36" /></g><g
           id="g38"
           transform="translate(500.9403,91.6972)"><path
             d="M 0,0 H -23.08 V 17.974 H 0 C 6.494,17.974 9.973,13.8 9.973,8.929 9.973,3.363 6.262,0 0,0 m -23.08,48.937 h 22.5 c 5.567,0 9.045,-3.595 9.045,-8.465 0,-4.871 -3.478,-8.35 -9.045,-8.35 h -22.5 z M 11.945,25.628 c 7.305,1.508 13.335,8.002 13.335,17.743 0,10.321 -7.537,19.714 -22.265,19.714 H -39.547 V -14.264 H 4.29 c 14.728,0 22.498,9.277 22.498,20.874 0,9.741 -6.61,17.743 -14.843,19.018"
             style="fill:#ffffff;fill-opacity:1;fill-rule:nonzero;stroke:none"
             id="path40" /></g><g
           id="g42"
           transform="translate(543.0623,77.4336)"><path
             d="M 0,0 H 54.736 V 14.496 H 16.467 v 17.51 H 46.58 V 46.502 H 16.467 V 62.853 H 54.736 V 77.348 H 0 Z"
             style="fill:#ffffff;fill-opacity:1;fill-rule:nonzero;stroke:none"
             id="path44" /></g><g
           id="g46"
           transform="translate(644.566,91.9294)"><path
             d="M 0,0 H -14.032 V 48.357 H 0 C 15.887,48.357 24.237,37.804 24.237,24.12 24.237,11.016 15.308,0 0,0 M 0,62.853 H -30.499 V -14.496 H 0 c 24.237,0 41.052,15.308 41.052,38.616 0,23.309 -16.815,38.733 -41.052,38.733"
             style="fill:#ffffff;fill-opacity:1;fill-rule:nonzero;stroke:none"
             id="path48" /></g></g></g></g></svg>
